<svg width="21" height="20" viewBox="0 0 21 20" fill="none" xmlns="http://www.w3.org/2000/svg">
<g id="icon-park:up-c" clip-path="url(#clip0_12_2461)">
<g id="Group">
<path id="Vector" d="M10.1209 18.3337C14.7233 18.3337 18.4543 14.6027 18.4543 10.0003C18.4543 5.39795 14.7233 1.66699 10.1209 1.66699C5.51856 1.66699 1.7876 5.39795 1.7876 10.0003C1.7876 14.6027 5.51856 18.3337 10.1209 18.3337Z" stroke="#FBE6E6" stroke-width="4"/>
<path id="Vector_2" d="M10.1209 18.3337C14.7233 18.3337 18.4543 14.6027 18.4543 10.0003C18.4543 5.39795 14.7233 1.66699 10.1209 1.66699C5.51856 1.66699 1.7876 5.39795 1.7876 10.0003C1.7876 14.6027 5.51856 18.3337 10.1209 18.3337Z" fill="#FBE6E6" stroke="#FBE6E6" stroke-width="4" stroke-linejoin="round"/>
<path id="Vector_3" d="M13.8711 11.25L10.1211 7.5L6.37109 11.25" stroke="#DF7474" stroke-width="4" stroke-linecap="round" stroke-linejoin="round"/>
</g>
</g>
<defs>
<clipPath id="clip0_12_2461">
<rect width="20" height="20" fill="white" transform="translate(0.121094)"/>
</clipPath>
</defs>
</svg>
