<svg width="15" height="17" viewBox="0 0 15 17" fill="none" xmlns="http://www.w3.org/2000/svg">
<g id="fa6-solid:trash-can" clip-path="url(#clip0_151_19)">
<path id="Vector" d="M4.57891 0.587695C4.7582 0.225781 5.12676 0 5.52852 0H9.52617C9.92793 0 10.2965 0.225781 10.4758 0.587695L10.7148 1.0625H13.9023C14.49 1.0625 14.9648 1.5373 14.9648 2.125C14.9648 2.7127 14.49 3.1875 13.9023 3.1875H1.15234C0.564648 3.1875 0.0898438 2.7127 0.0898438 2.125C0.0898438 1.5373 0.564648 1.0625 1.15234 1.0625H4.33984L4.57891 0.587695ZM1.15234 4.25H13.9023V14.875C13.9023 16.0471 12.9494 17 11.7773 17H3.27734C2.10527 17 1.15234 16.0471 1.15234 14.875V4.25ZM4.33984 6.375C4.04766 6.375 3.80859 6.61406 3.80859 6.90625V14.3438C3.80859 14.6359 4.04766 14.875 4.33984 14.875C4.63203 14.875 4.87109 14.6359 4.87109 14.3438V6.90625C4.87109 6.61406 4.63203 6.375 4.33984 6.375ZM7.52734 6.375C7.23516 6.375 6.99609 6.61406 6.99609 6.90625V14.3438C6.99609 14.6359 7.23516 14.875 7.52734 14.875C7.81953 14.875 8.05859 14.6359 8.05859 14.3438V6.90625C8.05859 6.61406 7.81953 6.375 7.52734 6.375ZM10.7148 6.375C10.4227 6.375 10.1836 6.61406 10.1836 6.90625V14.3438C10.1836 14.6359 10.4227 14.875 10.7148 14.875C11.007 14.875 11.2461 14.6359 11.2461 14.3438V6.90625C11.2461 6.61406 11.007 6.375 10.7148 6.375Z" fill="#CCCCCC"/>
</g>
<defs>
<clipPath id="clip0_151_19">
<rect width="14.875" height="17" fill="white" transform="translate(0.0898438)"/>
</clipPath>
</defs>
</svg>
