<svg width="107" height="95" viewBox="0 0 107 95" fill="none" xmlns="http://www.w3.org/2000/svg">
<path d="M22.2915 50.5068C22.2915 45.1323 22.2915 42.4451 23.5151 40.083C24.7388 37.7209 27.0368 35.9721 31.6328 32.4744L36.0912 29.0816C44.3985 22.7596 48.5521 19.5986 53.4998 19.5986C58.4476 19.5986 62.6012 22.7596 70.9085 29.0816L75.3668 32.4744C79.9629 35.9721 82.2609 37.7209 83.4845 40.083C84.7082 42.4451 84.7082 45.1323 84.7082 50.5068V67.2917C84.7082 74.7556 84.7082 78.4875 82.0965 80.8063C79.4849 83.125 75.2816 83.125 66.8748 83.125H40.1248C31.7181 83.125 27.5148 83.125 24.9031 80.8063C22.2915 78.4875 22.2915 74.7556 22.2915 67.2917V50.5068Z" stroke="#33363F" stroke-width="4.5"/>
<path d="M64.6457 83.125V60.375C64.6457 59.8227 64.198 59.375 63.6457 59.375H43.354C42.8017 59.375 42.354 59.8227 42.354 60.375V83.125" stroke="#33363F" stroke-width="2" stroke-linecap="round" stroke-linejoin="round"/>
</svg>
