<svg width="18" height="17" viewBox="0 0 18 17" fill="none" xmlns="http://www.w3.org/2000/svg">
<path id="Vector" d="M13.0205 0.623237L11.4117 2.23202L15.7328 6.55312L17.3416 4.94434C18.1726 4.11336 18.1726 2.76717 17.3416 1.93619L16.032 0.623237C15.201 -0.207746 13.8548 -0.207746 13.0238 0.623237H13.0205ZM10.6605 2.98323L2.91244 10.7346C2.56675 11.0803 2.31413 11.5091 2.17452 11.9778L0.997853 15.9765C0.914754 16.259 0.991205 16.5615 1.19729 16.7676C1.40337 16.9736 1.70585 17.0501 1.98506 16.9703L5.98374 15.7936C6.45242 15.654 6.88121 15.4014 7.22689 15.0557L14.9816 7.30433L10.6605 2.98323Z" fill="#CCCCCC"/>
</svg>
